<svg width="32" height="32" viewBox="0 0 32 32" fill="none" xmlns="http://www.w3.org/2000/svg">
<rect width="32" height="32" rx="8" fill="#22C55E"/>
<g clip-path="url(#clip0_2_2)">
<path d="M20.42 8C20.7447 7.99997 21.0645 8.07898 21.3518 8.23021C21.6391 8.38144 21.8852 8.60034 22.069 8.868L22.156 9.008L25.736 15.273C25.8797 15.5246 25.9671 15.8044 25.992 16.093L26 16.266V20.764C26 21.012 25.9539 21.2579 25.864 21.489L25.789 21.659L24.671 23.894C24.5172 24.2019 24.2866 24.465 24.0014 24.6577C23.7162 24.8504 23.3861 24.9662 23.043 24.994L22.882 25H21C20.4954 25.0002 20.0094 24.8096 19.6395 24.4665C19.2695 24.1234 19.0428 23.6532 19.005 23.15L19 23H13C13.0002 23.5046 12.8096 23.9906 12.4665 24.3605C12.1234 24.7305 11.6532 24.9572 11.15 24.995L11 25H9.118C8.77414 24.9999 8.43613 24.9111 8.13659 24.7422C7.83706 24.5734 7.58612 24.3301 7.408 24.036L7.329 23.894L6.211 21.658C6.10031 21.4362 6.03182 21.1958 6.009 20.949L6 20.764V16.266C5.99999 15.9766 6.06277 15.6907 6.184 15.428L6.264 15.273L9.844 9.008C10.0051 8.72608 10.2324 8.48761 10.5063 8.31321C10.7802 8.13881 11.0924 8.03371 11.416 8.007L11.58 8H20.42ZM20.42 10H11.58L8 16.266V20.764L9.118 23H11V22.1C10.9999 21.8289 11.0998 21.5674 11.2807 21.3655C11.4615 21.1636 11.7106 21.0356 11.98 21.006L12.1 21H19.9C20.1711 20.9999 20.4326 21.0998 20.6345 21.2807C20.8364 21.4615 20.9644 21.7106 20.994 21.98L21 22.1V23H22.882L24 20.764V16.266L20.42 10ZM20.554 15.105C20.7911 14.987 21.0654 14.9678 21.3167 15.0518C21.5679 15.1358 21.7755 15.3161 21.894 15.553C22.01 15.7908 22.028 16.0646 21.9442 16.3155C21.8605 16.5665 21.6816 16.7746 21.446 16.895C19.802 17.715 17.81 18 16 18C14.154 18 12.23 17.718 10.558 16.897C10.3225 16.7759 10.1436 16.5677 10.0591 16.3168C9.97474 16.0658 9.99155 15.7918 10.106 15.553C10.2181 15.3348 10.4057 15.1649 10.6339 15.0749C10.8621 14.9849 11.1152 14.981 11.346 15.064L11.613 15.179L11.857 15.276L12.076 15.356L12.336 15.442L12.638 15.534L12.978 15.625L13.355 15.715L13.766 15.797C14.503 15.932 15.2507 16 16 16C17.516 16 19.168 15.768 20.554 15.105Z" fill="white"/>
</g>
<defs>
<clipPath id="clip0_2_2">
<rect width="24" height="24" fill="white" transform="translate(4 4)"/>
</clipPath>
</defs>
</svg>
